<?xml version="1.0" encoding="UTF-8" standalone="no"?>
<svg
   viewBox="0 0 512.45 512.52"
   version="1.1"
   id="svg6"
   sodipodi:docname="9.svg"
   inkscape:version="1.3.1 (9b9bdc1480, 2023-11-25, custom)"
   xmlns:inkscape="http://www.inkscape.org/namespaces/inkscape"
   xmlns:sodipodi="http://sodipodi.sourceforge.net/DTD/sodipodi-0.dtd"
   xmlns="http://www.w3.org/2000/svg"
   xmlns:svg="http://www.w3.org/2000/svg">
  <sodipodi:namedview
     id="namedview6"
     pagecolor="#ffffff"
     bordercolor="#000000"
     borderopacity="0.25"
     inkscape:showpageshadow="2"
     inkscape:pageopacity="0.0"
     inkscape:pagecheckerboard="0"
     inkscape:deskcolor="#d1d1d1"
     inkscape:zoom="3.6993677"
     inkscape:cx="256.12485"
     inkscape:cy="256.26001"
     inkscape:window-width="3770"
     inkscape:window-height="2096"
     inkscape:window-x="0"
     inkscape:window-y="0"
     inkscape:window-maximized="1"
     inkscape:current-layer="svg6" />
  <defs
     id="defs1">
    <style
       id="style1">.cls-1{fill:#010101;}.cls-2{fill:#ec2324;}.cls-3{fill:#e6e6e6;}.cls-4{fill:#e5e6e5;}.cls-5{fill:#070606;}</style>
  </defs>
  <title
     id="title1">Asset 9@</title>
  <g
     id="Layer_2"
     data-name="Layer 2"
     transform="rotate(-30,256.1962,256.35978)">
    <g
       id="Layer_1-2"
       data-name="Layer 1">
      <path
         class="cls-1"
         d="M 512.45,256.13 A 255.73,255.73 0 0 1 256.77,512.52 C 115.21,512.77 0.18,398.33 0,257 -0.18,115.08 114.57,0 256.36,0 397.79,0 512.28,114.49 512.45,256.13 Z"
         id="path1" />
      <path
         class="cls-2"
         d="m 336.9,323.94 c -4.69,1.29 -7.73,-1.75 -10.88,-5.69 C 314.48,303.81 301.07,291.48 284.48,282.91 257.79,269.12 232,270.7 207,287.24 c -12.65,8.37 -23.15,19.06 -32.27,31 -3.48,4.56 -7.17,6 -12.63,5.83 -17.45,-0.66 -34.29,-4.33 -50.77,-9.83 C 79.71,303.7 50.52,288.47 25.69,266.16 2.05,244.94 5.42,245.91 9.79,221.43 16.53,183.69 29.88,148.34 50.67,116 80.06,70.25 120.54,38.68 172.37,22.26 224.2,5.84 276.51,4.79 328.81,19.86 393,38.33 440,78.32 471.94,136.5 a 280.52,280.52 0 0 1 30.9,89.2 c 1.5,8.9 -0.65,15.24 -6.78,21.48 -14.15,14.4 -30.51,25.82 -47.83,35.82 -28.33,16.43 -57.86,30.12 -89.9,37.75 -6.79,1.63 -13.64,3.08 -21.43,3.19 z"
         id="path2" />
      <path
         class="cls-3"
         d="m 12.22,300.09 c 40.2,32 87.34,47.22 136.74,56.36 10.39,1.92 15,5.65 19,15.68 11.75,29.89 33.26,50.58 65.23,57.76 29,6.49 72.52,-3.19 92.08,-45.5 a 114.21,114.21 0 0 0 6.88,-18.71 c 2.7,-10.1 2.78,-10.3 13.64,-11.19 a 249.48,249.48 0 0 0 44.16,-7.84 c 37,-9.87 71,-26.17 103,-47 2.5,-1.63 5,-3.21 7.57,-4.79 0.21,-0.12 0.56,0 1,0 a 8.69,8.69 0 0 1 0.11,2.82 c -12.19,39.31 -28,76.92 -52.44,110.4 -36.56,50.07 -84.48,83.06 -146.21,92.53 -80.35,12.34 -154,-3.39 -215.4,-59.65 -40.31,-36.92 -63.52,-84 -75.68,-136.84 a 7,7 0 0 1 -0.2,-2 11.68,11.68 0 0 1 0.52,-2.03 z"
         id="path3" />
      <path
         class="cls-4"
         d="m 247.49,405.85 c -17.7,-0.78 -33.78,-6 -46.34,-19.43 C 184.7,368.81 184.7,343.68 201,326 c 23.48,-25.47 69.58,-25.7 93.33,-0.47 17.13,18.21 16.95,44 -0.62,61.84 -12.61,12.81 -28.43,17.84 -46.22,18.48 z"
         id="path4" />
      <path
         class="cls-5"
         d="m 244.5,398 a 49.82,49.82 0 0 1 -33.42,-13.84 c -15,-14.34 -15,-35 -0.09,-49.43 18.86,-18.26 53.72,-18.64 72.92,-0.79 16.14,15 16,37 -0.65,51.51 -10.21,8.89 -22.39,12.63 -38.76,12.55 z"
         id="path5" />
      <path
         class="cls-3"
         d="m 252.78,392.08 c -16.77,0.17 -27.6,-3.4 -36.43,-12 -12.13,-11.75 -12.23,-28.89 -0.44,-41 16.43,-16.9 47.83,-16.78 64.16,0.24 11.35,11.82 11.24,28.56 -0.25,40.33 -7.82,8.04 -18.94,12.4 -27.04,12.43 z"
         id="path6" />
    </g>
  </g>
</svg>
